<svg width="43" height="44" viewBox="0 0 43 44" fill="none" xmlns="http://www.w3.org/2000/svg">
<path d="M14.3825 35.4287C14.3825 35.6107 14.1831 35.7563 13.9317 35.7563C13.6456 35.7836 13.4462 35.638 13.4462 35.4287C13.4462 35.2468 13.6456 35.1012 13.897 35.1012C14.1571 35.0739 14.3825 35.2195 14.3825 35.4287ZM11.6863 35.0193C11.6256 35.2013 11.799 35.4105 12.0591 35.4651C12.2845 35.5561 12.5446 35.4651 12.5966 35.2832C12.6486 35.1012 12.4839 34.8919 12.2238 34.8101C11.9984 34.7464 11.747 34.8373 11.6863 35.0193ZM15.5181 34.8646C15.2667 34.9283 15.0933 35.1012 15.1194 35.3105C15.1454 35.4924 15.3708 35.6107 15.6308 35.547C15.8823 35.4833 16.0556 35.3105 16.0296 35.1285C16.0036 34.9556 15.7696 34.8373 15.5181 34.8646ZM21.2226 0C9.19819 0 0 9.5805 0 22.1998C0 32.2898 6.05121 40.9241 14.6946 43.9629C15.8042 44.1722 16.1944 43.4534 16.1944 42.862C16.1944 42.2979 16.1683 39.1863 16.1683 37.2757C16.1683 37.2757 10.0998 38.6404 8.8254 34.5644C8.8254 34.5644 7.8371 31.9168 6.41532 31.2344C6.41532 31.2344 4.43004 29.806 6.55403 29.8333C6.55403 29.8333 8.7127 30.0153 9.9004 32.1806C11.799 35.6926 14.9806 34.6827 16.2204 34.0822C16.4198 32.6265 16.9833 31.6166 17.6075 31.0161C12.7613 30.452 7.87177 29.715 7.87177 20.9625C7.87177 18.4604 8.53065 17.2049 9.91774 15.6036C9.69234 15.0122 8.95544 12.5738 10.1431 9.42583C11.955 8.83444 16.125 11.8824 16.125 11.8824C17.8589 11.3729 19.7228 11.109 21.5694 11.109C23.4159 11.109 25.2798 11.3729 27.0137 11.8824C27.0137 11.8824 31.1837 8.82534 32.9956 9.42583C34.1833 12.5829 33.4464 15.0122 33.221 15.6036C34.6081 17.214 35.4577 18.4695 35.4577 20.9625C35.4577 29.7423 30.3514 30.4429 25.5052 31.0161C26.3028 31.7348 26.979 33.0996 26.979 35.2377C26.979 38.3038 26.953 42.0978 26.953 42.8438C26.953 43.4352 27.3518 44.154 28.4528 43.9447C37.1222 40.9241 43 32.2898 43 22.1998C43 9.5805 33.247 0 21.2226 0ZM8.42661 31.38C8.31391 31.471 8.33992 31.6802 8.4873 31.8531C8.62601 31.9987 8.8254 32.0624 8.9381 31.9441C9.05081 31.8531 9.0248 31.6438 8.87742 31.471C8.73871 31.3254 8.53931 31.2617 8.42661 31.38ZM7.49032 30.643C7.42964 30.7613 7.51633 30.9069 7.68972 30.9979C7.82843 31.0889 8.00181 31.0616 8.0625 30.9342C8.12319 30.8159 8.03649 30.6703 7.8631 30.5793C7.68972 30.5248 7.55101 30.5521 7.49032 30.643ZM10.2992 33.882C10.1605 34.0003 10.2125 34.2733 10.4119 34.4461C10.6113 34.6554 10.8627 34.6827 10.9754 34.5371C11.0881 34.4188 11.0361 34.1459 10.8627 33.973C10.672 33.7637 10.4119 33.7365 10.2992 33.882ZM9.31089 32.5446C9.17218 32.6356 9.17218 32.8721 9.31089 33.0814C9.4496 33.2906 9.68367 33.3816 9.79637 33.2906C9.93508 33.1724 9.93508 32.9358 9.79637 32.7265C9.675 32.5173 9.4496 32.4263 9.31089 32.5446Z" fill="#0CCEAD"/>
</svg>
