<svg width="39" height="40" viewBox="0 0 39 40" fill="none" xmlns="http://www.w3.org/2000/svg">
<path d="M36.2143 0H2.77701C1.24487 0 0 1.29464 0 2.88393V37.1161C0 38.7054 1.24487 40 2.77701 40H36.2143C37.7464 40 39 38.7054 39 37.1161V2.88393C39 1.29464 37.7464 0 36.2143 0ZM11.7871 34.2857H6.0067V15.1964H11.7958V34.2857H11.7871ZM8.89688 12.5893C7.04263 12.5893 5.54531 11.0446 5.54531 9.15179C5.54531 7.25893 7.04263 5.71429 8.89688 5.71429C10.7424 5.71429 12.2484 7.25893 12.2484 9.15179C12.2484 11.0536 10.7511 12.5893 8.89688 12.5893ZM33.4547 34.2857H27.6743V25C27.6743 22.7857 27.6308 19.9375 24.671 19.9375C21.6589 19.9375 21.1975 22.3482 21.1975 24.8393V34.2857H15.4172V15.1964H20.9625V17.8036H21.0408C21.8156 16.3036 23.7047 14.7232 26.5165 14.7232C32.3665 14.7232 33.4547 18.6786 33.4547 23.8214V34.2857Z" fill="#0CCEAD"/>
</svg>
